HIERARCHY
ROOT Hips
{
   OFFSET 0.00000 0.00000 0.00000
   CHANNELS 6 Xposition Yposition Zposition Zrotation Xrotation Yrotation
   JOINT Spine
   {
      OFFSET 0.000000 11.890501 0.000000
      CHANNELS 3 Zrotation Xrotation Yrotation
      JOINT Spine1
      {
         OFFSET -0.000000 25.657401 0.127660
         CHANNELS 3 Zrotation Xrotation Yrotation
         JOINT HEad
         {
            OFFSET 0.000000 8.734161 0.011340
            CHANNELS 3 Zrotation Xrotation Yrotation
            End Site
            {
               OFFSET -0.290000 12.774200 2.513950
            }
         }
         JOINT LeftShoulder1
         {
            OFFSET 8.990000 -0.362250 -0.220000
            CHANNELS 3 Zrotation Xrotation Yrotation
            JOINT LeftArm
            {
               OFFSET 10.282700 -0.003380 0.322120
               CHANNELS 3 Zrotation Xrotation Yrotation
               JOINT LeftForeArm
               {
                  OFFSET 32.766900 0.099140 -1.424340
                  CHANNELS 3 Zrotation Xrotation Yrotation
                  JOINT LeftHand
                  {
                     OFFSET 27.564301 0.085360 1.022160
                     CHANNELS 3 Zrotation Xrotation Yrotation
                     End Site
                     {
                        OFFSET 16.744301 -0.600000 1.502910
                     }
                  }
               }
            }
         }
         JOINT RightShoulder
         {
            OFFSET -8.990000 -0.362250 -0.220000
            CHANNELS 3 Zrotation Xrotation Yrotation
            JOINT RightArm
            {
               OFFSET -10.282700 -0.003380 0.322120
               CHANNELS 3 Zrotation Xrotation Yrotation
               JOINT RightForeArm
               {
                  OFFSET -32.897098 0.099140 -1.424340
                  CHANNELS 3 Zrotation Xrotation Yrotation
                  JOINT RightHand
                  {
                     OFFSET -27.492101 0.085360 1.022160
                     CHANNELS 3 Zrotation Xrotation Yrotation
                     End Site
                     {
                        OFFSET -16.631201 -0.600000 1.502910
                     }
                  }
               }
            }
         }
      }
   }
   JOINT LeftUpLeg
   {
      OFFSET 8.945800 -8.667070 0.101650
      CHANNELS 3 Zrotation Xrotation Yrotation
      JOINT LeftLeg
      {
         OFFSET 0.000000 -44.422697 1.372700
         CHANNELS 3 Zrotation Xrotation Yrotation
         JOINT LeftFoot
         {
            OFFSET -0.253550 -42.092399 -1.460590
            CHANNELS 3 Zrotation Xrotation Yrotation
            JOINT LeftToes
            {
               OFFSET -0.040000 -4.415090 8.499099
               CHANNELS 3 Zrotation Xrotation Yrotation
               End Site
               {
                  OFFSET 0.080000 -0.047450 9.779790
               }
            }
         }
      }
   }
   JOINT RightUpLeg
   {
      OFFSET -8.945800 -8.667070 0.101650
      CHANNELS 3 Zrotation Xrotation Yrotation
      JOINT RightLeg
      {
         OFFSET 0.000000 -44.422697 1.372700
         CHANNELS 3 Zrotation Xrotation Yrotation
         JOINT RightFoot
         {
            OFFSET 0.253550 -42.092399 -1.460590
            CHANNELS 3 Zrotation Xrotation Yrotation
            JOINT RightToes
            {
               OFFSET 0.040000 -4.415090 8.499099
               CHANNELS 3 Zrotation Xrotation Yrotation
               End Site
               {
                  OFFSET -0.080000 -0.137450 9.779790
               }
            }
         }
      }
   }
}
MOTION
Frames: 7
Frame Time: 0.016670
-52.930950 101.423872 -129.661596 -2.275748 -19.548831 -2.054604 -13.009776 17.745970 176.230506 -7.277462 -17.504583 -201.126695 -17.659833 21.767840 -12.529477 52.612513 84.887961 -60.883733 130.622997 -83.139897 90.592542 327.297201 -68.414084 -77.498632 -139.123918 -48.619776 -99.443429 -129.003176 199.098430 219.024796 49.106195 186.180288 317.567651 107.149802 193.572288 113.908690 -73.268027 -70.279300 -30.827666 11.566205 -19.496942 -114.918971 -14.644257 -18.226966 94.026980 -25.117420 33.571859 28.749827 -33.279059 -2.162867 19.630717 -10.567432 -11.527839 154.453226 -5.467273 -27.638485 -108.718395 -47.894383 39.158929 28.457712 39.535747 2.437357 -47.182458
-52.886495 101.279305 -129.773777 -1.606420 -17.964033 -3.936417 -10.250122 18.807126 178.520449 -9.013598 -19.021993 -201.551738 -19.600831 13.554816 -10.931630 54.693587 85.370131 -64.245599 143.446991 -80.703528 101.740777 331.084732 -71.201519 -74.830473 -138.257536 -48.051388 -98.798898 -117.473721 209.950589 225.830520 55.668395 190.230454 329.783581 113.087340 185.228050 120.390936 -81.303150 -72.876629 -32.086870 11.562384 -20.237156 -113.203016 -13.714790 -17.923721 93.030257 -24.404959 33.740469 28.460533 -34.692228 -2.079184 21.099453 -11.513146 -13.738330 150.981209 -3.281927 -28.321221 -105.433129 -47.596494 37.520336 28.320129 39.180427 1.785004 -46.894791
-52.791199 101.088952 -129.785898 -1.740700 -17.540348 -4.957303 -9.791722 18.976313 180.523853 -10.399383 -19.871307 -202.617958 -20.270226 7.651141 -9.778613 57.260140 85.647294 -66.584687 154.512444 -78.406330 111.079319 333.455163 -71.793935 -72.173591 -138.145016 -48.087069 -97.756843 -107.113062 220.684874 231.607152 62.221377 191.802039 340.620250 117.172045 178.964357 124.445910 -87.945249 -75.708644 -35.541852 12.117059 -20.110128 -111.888846 -13.000371 -17.818454 92.527801 -23.482585 33.543288 28.370548 -35.944253 -2.432084 22.248458 -11.500674 -14.681589 147.417448 -1.080047 -28.701787 -102.715137 -46.941414 36.883080 28.587507 38.821279 1.601182 -46.852188
-52.681808 100.805386 -129.676683 -1.731867 -17.591972 -5.836026 -8.793557 19.247944 182.632811 -11.342503 -20.545078 -203.364238 -19.789414 3.473674 -9.040516 59.860994 85.147700 -69.173185 164.456229 -76.132253 118.511282 334.945128 -71.370204 -70.096360 -138.030897 -48.189638 -96.672230 -96.362119 230.141667 237.981249 68.088045 191.115264 350.059134 120.184815 173.282282 128.571194 -93.757529 -78.245254 -39.944900 12.384333 -19.886927 -111.049956 -12.797283 -17.706369 92.427889 -22.989713 33.647025 27.919483 -37.205133 -2.475183 23.013814 -11.425755 -15.172970 143.889218 0.964438 -28.958260 -100.044895 -46.447568 36.244573 28.602143 38.149540 1.173208 -47.024152
-52.541498 100.539254 -129.545610 -1.990943 -17.497659 -5.976033 -8.512123 19.508207 184.836189 -12.087320 -20.770593 -203.958123 -18.802298 0.570808 -8.566904 63.354581 84.095536 -72.421787 173.070505 -74.169769 125.202818 335.764231 -69.870889 -68.781965 -138.087615 -48.556163 -95.961672 -85.400218 238.086215 245.428095 72.962669 188.388447 357.951035 121.475106 167.837993 132.431193 -100.410980 -81.104439 -43.890792 12.959885 -19.805025 -110.520568 -12.427321 -17.970933 92.634577 -22.552953 33.490596 27.374230 -38.379816 -2.738121 23.402433 -11.336260 -15.316682 140.400044 2.730351 -29.034560 -97.484804 -46.069196 35.547077 28.428576 37.286450 0.367210 -47.225663
-52.386955 100.298413 -129.371288 -2.054131 -17.088735 -5.303644 -8.380716 19.940524 187.300822 -12.667595 -20.244056 -204.542227 -17.663305 -1.153068 -8.266714 67.620205 82.510031 -75.780935 180.552881 -72.646193 131.742383 336.159644 -67.722343 -68.227012 -137.939400 -48.940201 -95.785630 -74.325558 245.498801 253.856411 75.981470 183.155744 362.999884 119.980291 160.964951 138.699326 -107.951399 -83.719193 -46.815961 13.559742 -20.056065 -110.255898 -11.684032 -18.559664 93.073779 -22.286330 33.213434 26.627909 -39.523036 -3.048420 23.428652 -11.525344 -15.518226 136.968679 4.047045 -28.917689 -95.193931 -45.744830 35.097221 28.185920 36.413852 -0.632035 -47.478298
-52.209849 100.069836 -129.150808 -2.352588 -16.132193 -5.037700 -8.891317 21.365682 189.571518 -12.297709 -19.124023 -205.791141 -16.629924 -1.492620 -8.066266 72.446348 81.145325 -78.134366 186.409441 -71.730100 139.544521 336.056017 -64.901714 -68.101378 -137.876794 -49.578584 -96.172137 -64.092023 252.922123 263.670874 79.587482 179.032276 367.285882 118.399731 159.744218 142.819337 -114.236635 -86.546884 -55.820397 13.848989 -21.135095 -110.511382 -11.739020 -18.429865 93.926576 -21.923300 33.138951 26.079039 -40.631586 -3.390373 23.397404 -11.836906 -15.886897 133.614483 4.032480 -28.858038 -93.082166 -45.295735 35.076720 28.204721 35.630956 -1.603306 -47.623180
